<svg width="128" height="75" viewBox="0 0 128 75" fill="none" xmlns="http://www.w3.org/2000/svg">
<path d="M9.13755 26.2715L98.0439 5L63.4255 23.1202L35.1014 24.6958L25.66 60.1483C20.5347 63.7185 11.2819 70.2084 9.38807 71.6922C9.27927 71.8443 9.19514 71.937 9.13755 71.9658C8.94832 72.0606 9.05303 71.9548 9.38807 71.6922C11.6579 68.519 24.6607 39.4812 31.1676 24.6958L9.13755 26.2715Z" fill="#E86720"/>
<path d="M64.6689 33.1595L56.3906 35.4126L51.1556 53.5202C54.7548 52.4527 62.0826 50.3033 62.601 50.2467C63.1194 50.1901 59.4776 47.6652 57.5919 46.4099L64.1009 39.9661L60.7154 38.987L64.6689 33.1595Z" fill="#E86720"/>
<path d="M73.5055 50L65.0439 35.8298L73.5055 38.1915L95.0439 13L73.5055 50Z" fill="#E86720"/>
<path d="M89.792 47.2393L77.2764 48.8037L87.4453 28.4658L92.1387 26.9014L89.792 47.2393ZM82.752 45.6748L88.2275 43.3281L89.0098 35.5059L82.752 45.6748Z" fill="#E86720"/>
<path d="M99.0439 45L93.0439 49L96.7939 25.8L99.0439 25L97.5439 41L99.0439 45Z" fill="#E86720"/>
<path d="M94.4854 66.7949L104.654 33.9414L102.308 27.6836L119.516 19.8623L94.4854 66.7949ZM106.219 30.0303L107.001 33.1592L105.437 40.1992L113.259 26.1201L106.219 30.0303Z" fill="#E86720"/>
<path d="M44.4238 31.5947L38.166 57.4082L28.7803 58.9727L36.6016 29.248L44.4238 31.5947ZM37.7236 35.9502L37.6758 36.1904L34.5469 51.834L34.4941 52.0967L35.4658 53.0684L36.1064 53.708L36.3066 52.8252L40.2178 35.6162L40.4521 34.5859L37.7236 35.9502Z" fill="#E86720"/>
<path d="M48.0439 43.0233L44.8439 35.907L40.0439 56.4651L44.8439 47.7674L44.0439 62L54.4439 35.1163L60.0439 28L52.0439 30.3721L48.0439 43.0233Z" fill="#E86720"/>
</svg>
